<svg xmlns="http://www.w3.org/2000/svg" viewBox="0 0 900 600" role="img" aria-labelledby="title97 desc97" font-family="Times New Roman,serif"><title id="title97">97번 도형</title><desc id="desc97">이등변삼각형 OAB, 직선 y=x, y=2x와 점 C, D, E. 원래 주어진 대칭점 C를 유지하고 주변에 판서 공간을 비웠습니다.</desc><defs><marker id="arrow97" viewBox="0 0 10 10" refX="8" refY="5" markerWidth="7" markerHeight="7" orient="auto"><path d="M0 0L10 5L0 10Z" fill="#8c999f"/></marker></defs><path d="M50.0 417.05882352941177L546.9411764705883 417.05882352941177" fill="none" stroke="#8c999f" stroke-width="1.6" marker-end="url(#arrow97)"/><path d="M162.94117647058823 530.0L162.94117647058823 50.0" fill="none" stroke="#8c999f" stroke-width="1.6" marker-end="url(#arrow97)"/><text x="558.941" y="425.059" font-size="28" fill="#263e4b" text-anchor="start" font-style="italic">x</text><text x="142.941" y="38.000" font-size="28" fill="#263e4b" text-anchor="start" font-style="italic">y</text><text x="136.941" y="446.059" font-size="28" fill="#263e4b" text-anchor="start">O</text><path d="M78.235 501.765L501.765 78.235" fill="none" stroke="#263e4b" stroke-width="2.6"/><path d="M117.765 507.412L332.353 78.235" fill="none" stroke="#263e4b" stroke-width="2.6"/><text x="445.294" y="115.059" font-size="28" fill="#263e4b" text-anchor="start" font-style="italic">y = x</text><text x="284.118" y="80.176" font-size="28" fill="#263e4b" text-anchor="start" font-style="italic">y = 2x</text><path d="M162.941 417.059L388.824 304.118L162.941 191.176L162.941 417.059" fill="none" stroke="#263e4b" stroke-width="2.6"/><path d="M388.824 304.118L275.882 191.176" fill="none" stroke="#263e4b" stroke-width="2.6" stroke-dasharray="7 6"/><text x="401.824" y="312.118" font-size="28" fill="#263e4b" text-anchor="start">A</text><text x="133.941" y="196.176" font-size="28" fill="#263e4b" text-anchor="start">B</text><text x="247.882" y="181.176" font-size="28" fill="#263e4b" text-anchor="start">C</text><text x="323.529" y="292.471" font-size="28" fill="#263e4b" text-anchor="start">D</text><text x="223.294" y="243.353" font-size="28" fill="#263e4b" text-anchor="start">E</text><path d="M340.259 239.741L348.165 247.647L340.259 255.553" fill="none" stroke="#263e4b" stroke-width="1.7"/></svg>